<svg width="16" height="16" viewBox="0 0 16 16" fill="none" xmlns="http://www.w3.org/2000/svg">
<mask id="path-1-outside-1_281_189" maskUnits="userSpaceOnUse" x="-0.699951" y="-0.800003" width="16" height="17" fill="black">
<rect fill="white" x="-0.699951" y="-0.800003" width="16" height="17"/>
<path d="M6.37403 0.828718C6.3199 0.567904 6.06404 0.398817 5.80724 0.469592C4.67248 0.782343 3.62492 1.35851 2.75118 2.15393C1.7583 3.05779 1.02628 4.21162 0.631522 5.49495C0.236768 6.77828 0.193763 8.14406 0.506997 9.44968C0.820231 10.7553 1.47822 11.9529 2.41226 12.9174C3.3463 13.882 4.52215 14.5781 5.81704 14.9331C7.11193 15.2881 8.47838 15.289 9.77373 14.9356C11.0691 14.5823 12.2458 13.8877 13.1811 12.9244C14.0042 12.0766 14.6137 11.0481 14.9627 9.92399C15.0417 9.6696 14.8809 9.40844 14.622 9.34596V9.34596C14.363 9.28348 14.1042 9.44348 14.0228 9.69711C13.7159 10.6536 13.1918 11.5286 12.489 12.2524C11.674 13.0919 10.6486 13.6971 9.51988 14.005C8.39114 14.3129 7.20044 14.3122 6.07209 14.0028C4.94374 13.6935 3.91912 13.0869 3.10521 12.2464C2.2913 11.4059 1.71794 10.3623 1.445 9.22465C1.17205 8.08694 1.20952 6.89683 1.5535 5.77856C1.89749 4.66028 2.53536 3.65485 3.40054 2.86724C4.14656 2.1881 5.03798 1.69239 6.00382 1.4163C6.25993 1.34309 6.42816 1.08953 6.37403 0.828718V0.828718Z"/>
</mask>
<path d="M6.37403 0.828718C6.3199 0.567904 6.06404 0.398817 5.80724 0.469592C4.67248 0.782343 3.62492 1.35851 2.75118 2.15393C1.7583 3.05779 1.02628 4.21162 0.631522 5.49495C0.236768 6.77828 0.193763 8.14406 0.506997 9.44968C0.820231 10.7553 1.47822 11.9529 2.41226 12.9174C3.3463 13.882 4.52215 14.5781 5.81704 14.9331C7.11193 15.2881 8.47838 15.289 9.77373 14.9356C11.0691 14.5823 12.2458 13.8877 13.1811 12.9244C14.0042 12.0766 14.6137 11.0481 14.9627 9.92399C15.0417 9.6696 14.8809 9.40844 14.622 9.34596V9.34596C14.363 9.28348 14.1042 9.44348 14.0228 9.69711C13.7159 10.6536 13.1918 11.5286 12.489 12.2524C11.674 13.0919 10.6486 13.6971 9.51988 14.005C8.39114 14.3129 7.20044 14.3122 6.07209 14.0028C4.94374 13.6935 3.91912 13.0869 3.10521 12.2464C2.2913 11.4059 1.71794 10.3623 1.445 9.22465C1.17205 8.08694 1.20952 6.89683 1.5535 5.77856C1.89749 4.66028 2.53536 3.65485 3.40054 2.86724C4.14656 2.1881 5.03798 1.69239 6.00382 1.4163C6.25993 1.34309 6.42816 1.08953 6.37403 0.828718V0.828718Z" fill="black"/>
<path d="M6.37403 0.828718C6.3199 0.567904 6.06404 0.398817 5.80724 0.469592C4.67248 0.782343 3.62492 1.35851 2.75118 2.15393C1.7583 3.05779 1.02628 4.21162 0.631522 5.49495C0.236768 6.77828 0.193763 8.14406 0.506997 9.44968C0.820231 10.7553 1.47822 11.9529 2.41226 12.9174C3.3463 13.882 4.52215 14.5781 5.81704 14.9331C7.11193 15.2881 8.47838 15.289 9.77373 14.9356C11.0691 14.5823 12.2458 13.8877 13.1811 12.9244C14.0042 12.0766 14.6137 11.0481 14.9627 9.92399C15.0417 9.6696 14.8809 9.40844 14.622 9.34596V9.34596C14.363 9.28348 14.1042 9.44348 14.0228 9.69711C13.7159 10.6536 13.1918 11.5286 12.489 12.2524C11.674 13.0919 10.6486 13.6971 9.51988 14.005C8.39114 14.3129 7.20044 14.3122 6.07209 14.0028C4.94374 13.6935 3.91912 13.0869 3.10521 12.2464C2.2913 11.4059 1.71794 10.3623 1.445 9.22465C1.17205 8.08694 1.20952 6.89683 1.5535 5.77856C1.89749 4.66028 2.53536 3.65485 3.40054 2.86724C4.14656 2.1881 5.03798 1.69239 6.00382 1.4163C6.25993 1.34309 6.42816 1.08953 6.37403 0.828718V0.828718Z" stroke="black" stroke-width="0.6" mask="url(#path-1-outside-1_281_189)"/>
<path d="M10.3 9.15145C10.3 9.66372 10.1223 10.1049 9.76684 10.4748C9.41137 10.8448 8.94961 11.0733 8.38157 11.1604V12.0393C8.38157 12.0862 8.36549 12.1247 8.33334 12.1548C8.30119 12.1849 8.2601 12.2 8.21009 12.2H7.48664C7.44019 12.2 7.4 12.1841 7.36606 12.1523C7.33212 12.1205 7.31515 12.0828 7.31515 12.0393V11.1604C7.07936 11.1302 6.85161 11.0783 6.6319 11.0047C6.41218 10.931 6.23087 10.8565 6.08797 10.7812C5.94507 10.7059 5.81288 10.6255 5.69141 10.5401C5.56995 10.4547 5.48688 10.392 5.44223 10.3518C5.39757 10.3116 5.36631 10.2815 5.34845 10.2614C5.28771 10.1911 5.28414 10.1224 5.33773 10.0555L5.88969 9.37745C5.9147 9.34397 5.95579 9.32388 6.01295 9.31718C6.06654 9.31049 6.10941 9.32555 6.14156 9.36239L6.15228 9.37243C6.55598 9.7039 6.99005 9.91317 7.45448 10.0002C7.58667 10.027 7.71886 10.0404 7.85104 10.0404C8.14042 10.0404 8.39497 9.96841 8.61468 9.82444C8.8344 9.68047 8.94425 9.47622 8.94425 9.21172C8.94425 9.11797 8.91746 9.02924 8.86387 8.94553C8.81028 8.86183 8.75044 8.79151 8.68435 8.7346C8.61825 8.67768 8.51376 8.6149 8.37085 8.54626C8.22795 8.47762 8.11005 8.42405 8.01717 8.38554C7.92428 8.34704 7.78138 8.29263 7.58846 8.22232C7.44913 8.16875 7.33927 8.12689 7.25889 8.09676C7.1785 8.06663 7.06865 8.02226 6.92931 7.96367C6.78998 7.90508 6.67834 7.85318 6.59439 7.80798C6.51043 7.76278 6.4095 7.70335 6.29161 7.62968C6.17371 7.55602 6.07815 7.48487 6.00491 7.41624C5.93167 7.3476 5.85397 7.26557 5.7718 7.17014C5.68963 7.07472 5.62621 6.97762 5.58156 6.87885C5.5369 6.78008 5.49939 6.66875 5.46902 6.54486C5.43865 6.42098 5.42347 6.2904 5.42347 6.15312C5.42347 5.69107 5.59853 5.28593 5.94864 4.93772C6.29875 4.58951 6.75426 4.36518 7.31515 4.26473V3.36071C7.31515 3.31718 7.33212 3.27952 7.36606 3.24771C7.4 3.2159 7.44019 3.2 7.48664 3.2H8.21009C8.2601 3.2 8.30119 3.21506 8.33334 3.2452C8.36549 3.27533 8.38157 3.31384 8.38157 3.36071V4.24464C8.58521 4.26473 8.78259 4.30323 8.97373 4.36015C9.16486 4.41707 9.32027 4.47316 9.43995 4.5284C9.55963 4.58365 9.67306 4.64643 9.78024 4.71674C9.88742 4.78705 9.95708 4.8356 9.98923 4.86239C10.0214 4.88917 10.0482 4.91261 10.0696 4.9327C10.1304 4.99297 10.1393 5.05658 10.0964 5.12355L9.66234 5.8568C9.63376 5.90703 9.59268 5.93381 9.53909 5.93716C9.48907 5.94721 9.44084 5.93549 9.3944 5.90201C9.38368 5.89196 9.35778 5.87187 9.31669 5.84174C9.27561 5.8116 9.20594 5.76724 9.1077 5.70865C9.00945 5.65005 8.90495 5.59648 8.7942 5.54793C8.68345 5.49938 8.55038 5.45586 8.39497 5.41735C8.23956 5.37885 8.08683 5.3596 7.93678 5.3596C7.59739 5.3596 7.32051 5.43158 7.10616 5.57555C6.8918 5.71953 6.78463 5.90535 6.78463 6.13303C6.78463 6.22009 6.79981 6.30044 6.83018 6.3741C6.86054 6.44776 6.91324 6.51724 6.98826 6.58253C7.06329 6.64782 7.13385 6.70307 7.19994 6.74827C7.26603 6.79347 7.36606 6.84537 7.50004 6.90396C7.63401 6.96255 7.74208 7.00775 7.82425 7.03956C7.90642 7.07137 8.03146 7.11741 8.19937 7.17768C8.38872 7.24464 8.53341 7.29737 8.63344 7.33588C8.73347 7.37438 8.86923 7.43298 9.04071 7.51166C9.2122 7.59034 9.34706 7.66149 9.44531 7.72511C9.54355 7.78872 9.6543 7.87243 9.77756 7.97622C9.90081 8.08002 9.99549 8.18633 10.0616 8.29514C10.1277 8.40396 10.1839 8.53203 10.2304 8.67935C10.2768 8.82667 10.3 8.98404 10.3 9.15145Z" fill="black"/>
<path d="M13.3684 0.107224C13.4357 0.120653 13.4979 0.153662 13.5471 0.202927C13.6128 0.268564 13.6497 0.357171 13.6497 0.449997V1.85039H15.05C15.1429 1.85039 15.2315 1.88729 15.2971 1.95293C15.3628 2.01856 15.3997 2.10717 15.3997 2.2C15.3997 2.29282 15.3628 2.38143 15.2971 2.44707C15.2315 2.5127 15.1429 2.54961 15.05 2.54961H13.6497V3.95C13.6497 4.04282 13.6128 4.13143 13.5471 4.19707C13.4815 4.26271 13.3929 4.29961 13.3 4.29961C13.2072 4.29961 13.1186 4.26271 13.053 4.19707C12.9873 4.13143 12.9504 4.04282 12.9504 3.95V2.54961H11.55C11.4572 2.54961 11.3686 2.5127 11.303 2.44707C11.2373 2.38143 11.2004 2.29282 11.2004 2.2L11.2073 2.13164C11.2207 2.06431 11.2537 2.00219 11.303 1.95293C11.3686 1.88729 11.4572 1.85039 11.55 1.85039H12.9504V0.449997C12.9504 0.357171 12.9873 0.268564 13.053 0.202927C13.1186 0.137289 13.2072 0.100388 13.3 0.100388L13.3684 0.107224Z" fill="black" stroke="black" stroke-width="0.2"/>
</svg>
