<svg width="16" height="16" viewBox="0 0 16 16" fill="none" xmlns="http://www.w3.org/2000/svg">
<mask id="path-1-outside-1_281_190" maskUnits="userSpaceOnUse" x="-0.699951" y="-0.952988" width="16" height="17" fill="black">
<rect fill="white" x="-0.699951" y="-0.952988" width="16" height="17"/>
<path d="M6.37403 0.675733C6.3199 0.41492 6.06404 0.245832 5.80724 0.316608C4.67248 0.629358 3.62492 1.20553 2.75118 2.00094C1.7583 2.90481 1.02628 4.05864 0.631522 5.34197C0.236768 6.6253 0.193763 7.99107 0.506997 9.2967C0.820231 10.6023 1.47822 11.7999 2.41226 12.7645C3.3463 13.729 4.52215 14.4251 5.81704 14.7801C7.11193 15.1351 8.47838 15.136 9.77373 14.7827C11.0691 14.4293 12.2458 13.7347 13.1811 12.7714C14.0042 11.9236 14.6137 10.8951 14.9627 9.77101C15.0417 9.51661 14.8809 9.25545 14.622 9.19297V9.19297C14.363 9.1305 14.1042 9.29049 14.0228 9.54412C13.7159 10.5006 13.1918 11.3756 12.489 12.0995C11.674 12.9389 10.6486 13.5442 9.51988 13.852C8.39114 14.1599 7.20044 14.1592 6.07209 13.8498C4.94374 13.5405 3.91912 12.9339 3.10521 12.0934C2.2913 11.2529 1.71794 10.2094 1.445 9.07166C1.17205 7.93396 1.20952 6.74385 1.5535 5.62557C1.89749 4.5073 2.53536 3.50187 3.40054 2.71425C4.14656 2.03512 5.03798 1.5394 6.00382 1.26332C6.25993 1.19011 6.42816 0.936547 6.37403 0.675733V0.675733Z"/>
</mask>
<path d="M6.37403 0.675733C6.3199 0.41492 6.06404 0.245832 5.80724 0.316608C4.67248 0.629358 3.62492 1.20553 2.75118 2.00094C1.7583 2.90481 1.02628 4.05864 0.631522 5.34197C0.236768 6.6253 0.193763 7.99107 0.506997 9.2967C0.820231 10.6023 1.47822 11.7999 2.41226 12.7645C3.3463 13.729 4.52215 14.4251 5.81704 14.7801C7.11193 15.1351 8.47838 15.136 9.77373 14.7827C11.0691 14.4293 12.2458 13.7347 13.1811 12.7714C14.0042 11.9236 14.6137 10.8951 14.9627 9.77101C15.0417 9.51661 14.8809 9.25545 14.622 9.19297V9.19297C14.363 9.1305 14.1042 9.29049 14.0228 9.54412C13.7159 10.5006 13.1918 11.3756 12.489 12.0995C11.674 12.9389 10.6486 13.5442 9.51988 13.852C8.39114 14.1599 7.20044 14.1592 6.07209 13.8498C4.94374 13.5405 3.91912 12.9339 3.10521 12.0934C2.2913 11.2529 1.71794 10.2094 1.445 9.07166C1.17205 7.93396 1.20952 6.74385 1.5535 5.62557C1.89749 4.5073 2.53536 3.50187 3.40054 2.71425C4.14656 2.03512 5.03798 1.5394 6.00382 1.26332C6.25993 1.19011 6.42816 0.936547 6.37403 0.675733V0.675733Z" fill="black"/>
<path d="M6.37403 0.675733C6.3199 0.41492 6.06404 0.245832 5.80724 0.316608C4.67248 0.629358 3.62492 1.20553 2.75118 2.00094C1.7583 2.90481 1.02628 4.05864 0.631522 5.34197C0.236768 6.6253 0.193763 7.99107 0.506997 9.2967C0.820231 10.6023 1.47822 11.7999 2.41226 12.7645C3.3463 13.729 4.52215 14.4251 5.81704 14.7801C7.11193 15.1351 8.47838 15.136 9.77373 14.7827C11.0691 14.4293 12.2458 13.7347 13.1811 12.7714C14.0042 11.9236 14.6137 10.8951 14.9627 9.77101C15.0417 9.51661 14.8809 9.25545 14.622 9.19297V9.19297C14.363 9.1305 14.1042 9.29049 14.0228 9.54412C13.7159 10.5006 13.1918 11.3756 12.489 12.0995C11.674 12.9389 10.6486 13.5442 9.51988 13.852C8.39114 14.1599 7.20044 14.1592 6.07209 13.8498C4.94374 13.5405 3.91912 12.9339 3.10521 12.0934C2.2913 11.2529 1.71794 10.2094 1.445 9.07166C1.17205 7.93396 1.20952 6.74385 1.5535 5.62557C1.89749 4.5073 2.53536 3.50187 3.40054 2.71425C4.14656 2.03512 5.03798 1.5394 6.00382 1.26332C6.25993 1.19011 6.42816 0.936547 6.37403 0.675733V0.675733Z" stroke="black" stroke-width="0.6" mask="url(#path-1-outside-1_281_190)"/>
<path d="M10.3 8.99846C10.3 9.51074 10.1223 9.95187 9.76684 10.3218C9.41137 10.6918 8.94961 10.9203 8.38157 11.0074V11.8863C8.38157 11.9332 8.36549 11.9717 8.33334 12.0018C8.30119 12.0319 8.2601 12.047 8.21009 12.047H7.48664C7.44019 12.047 7.4 12.0311 7.36606 11.9993C7.33212 11.9675 7.31515 11.9298 7.31515 11.8863V11.0074C7.07936 10.9773 6.85161 10.9254 6.6319 10.8517C6.41218 10.778 6.23087 10.7035 6.08797 10.6282C5.94507 10.5529 5.81288 10.4725 5.69141 10.3871C5.56995 10.3018 5.48688 10.239 5.44223 10.1988C5.39757 10.1586 5.36631 10.1285 5.34845 10.1084C5.28771 10.0381 5.28414 9.96945 5.33773 9.90248L5.88969 9.22447C5.9147 9.19099 5.95579 9.1709 6.01295 9.1642C6.06654 9.1575 6.10941 9.17257 6.14156 9.2094L6.15228 9.21945C6.55598 9.55092 6.99005 9.76018 7.45448 9.84724C7.58667 9.87402 7.71886 9.88741 7.85104 9.88741C8.14042 9.88741 8.39497 9.81543 8.61468 9.67145C8.8344 9.52748 8.94425 9.32324 8.94425 9.05873C8.94425 8.96498 8.91746 8.87625 8.86387 8.79255C8.81028 8.70884 8.75044 8.63853 8.68435 8.58161C8.61825 8.52469 8.51376 8.46191 8.37085 8.39327C8.22795 8.32463 8.11005 8.27106 8.01717 8.23256C7.92428 8.19405 7.78138 8.13965 7.58846 8.06933C7.44913 8.01576 7.33927 7.97391 7.25889 7.94378C7.1785 7.91364 7.06865 7.86928 6.92931 7.81068C6.78998 7.75209 6.67834 7.70019 6.59439 7.65499C6.51043 7.60979 6.4095 7.55036 6.29161 7.4767C6.17371 7.40304 6.07815 7.33189 6.00491 7.26325C5.93167 7.19461 5.85397 7.11258 5.7718 7.01716C5.68963 6.92173 5.62621 6.82464 5.58156 6.72586C5.5369 6.62709 5.49939 6.51576 5.46902 6.39188C5.43865 6.26799 5.42347 6.13741 5.42347 6.00014C5.42347 5.53808 5.59853 5.13295 5.94864 4.78474C6.29875 4.43652 6.75426 4.21219 7.31515 4.11174V3.20773C7.31515 3.1642 7.33212 3.12653 7.36606 3.09472C7.4 3.06292 7.44019 3.04701 7.48664 3.04701H8.21009C8.2601 3.04701 8.30119 3.06208 8.33334 3.09221C8.36549 3.12235 8.38157 3.16085 8.38157 3.20773V4.09166C8.58521 4.11174 8.78259 4.15025 8.97373 4.20717C9.16486 4.26409 9.32027 4.32017 9.43995 4.37542C9.55963 4.43066 9.67306 4.49344 9.78024 4.56375C9.88742 4.63407 9.95708 4.68261 9.98923 4.7094C10.0214 4.73619 10.0482 4.75962 10.0696 4.77971C10.1304 4.83998 10.1393 4.9036 10.0964 4.97056L9.66234 5.70382C9.63376 5.75404 9.59268 5.78083 9.53909 5.78418C9.48907 5.79422 9.44084 5.7825 9.3944 5.74902C9.38368 5.73898 9.35778 5.71889 9.31669 5.68875C9.27561 5.65862 9.20594 5.61426 9.1077 5.55566C9.00945 5.49707 8.90495 5.4435 8.7942 5.39495C8.68345 5.3464 8.55038 5.30287 8.39497 5.26437C8.23956 5.22586 8.08683 5.20661 7.93678 5.20661C7.59739 5.20661 7.32051 5.2786 7.10616 5.42257C6.8918 5.56654 6.78463 5.75237 6.78463 5.98005C6.78463 6.0671 6.79981 6.14746 6.83018 6.22112C6.86054 6.29478 6.91324 6.36426 6.98826 6.42955C7.06329 6.49484 7.13385 6.55008 7.19994 6.59528C7.26603 6.64048 7.36606 6.69238 7.50004 6.75097C7.63401 6.80957 7.74208 6.85477 7.82425 6.88658C7.90642 6.91839 8.03146 6.96442 8.19937 7.02469C8.38872 7.09166 8.53341 7.14439 8.63344 7.18289C8.73347 7.2214 8.86923 7.27999 9.04071 7.35868C9.2122 7.43736 9.34706 7.50851 9.44531 7.57212C9.54355 7.63574 9.6543 7.71945 9.77756 7.82324C9.90081 7.92703 9.99549 8.03334 10.0616 8.14216C10.1277 8.25097 10.1839 8.37904 10.2304 8.52636C10.2768 8.67369 10.3 8.83105 10.3 8.99846Z" fill="black"/>
<path d="M15.05 1.89662C15.1561 1.89662 15.2582 1.93879 15.3333 2.01381C15.4083 2.08882 15.4504 2.19093 15.4504 2.29701C15.4504 2.4031 15.4083 2.5052 15.3333 2.58022C15.2582 2.65523 15.1561 2.6974 15.05 2.6974H11.55C11.444 2.6974 11.3419 2.65523 11.2668 2.58022C11.1918 2.5052 11.1497 2.4031 11.1497 2.29701C11.1497 2.19093 11.1918 2.08882 11.2668 2.01381C11.3419 1.93879 11.444 1.89662 11.55 1.89662H15.05Z" fill="black" stroke="black" stroke-width="0.3"/>
</svg>
