<svg width="24" height="24" viewBox="0 0 24 24" fill="none" xmlns="http://www.w3.org/2000/svg">
<path d="M23.3684 10.1326H0.631579C0.464074 10.1326 0.303429 10.199 0.184985 10.3173C0.0665413 10.4355 0 10.5958 0 10.763V23.3697C0 23.5368 0.0665413 23.6972 0.184985 23.8154C0.303429 23.9336 0.464074 24 0.631579 24H23.3684C23.5359 24 23.6966 23.9336 23.815 23.8154C23.9335 23.6972 24 23.5368 24 23.3697V10.763C24 10.5958 23.9335 10.4355 23.815 10.3173C23.6966 10.199 23.5359 10.1326 23.3684 10.1326ZM4.42105 21.4787H3.15789C2.99039 21.4787 2.82975 21.4123 2.7113 21.294C2.59286 21.1758 2.52632 21.0155 2.52632 20.8483C2.52632 20.6812 2.59286 20.5208 2.7113 20.4026C2.82975 20.2844 2.99039 20.218 3.15789 20.218H4.42105C4.58856 20.218 4.7492 20.2844 4.86765 20.4026C4.98609 20.5208 5.05263 20.6812 5.05263 20.8483C5.05263 21.0155 4.98609 21.1758 4.86765 21.294C4.7492 21.4123 4.58856 21.4787 4.42105 21.4787ZM12 20.218C11.3754 20.218 10.7649 20.0332 10.2456 19.6868C9.72625 19.3405 9.3215 18.8483 9.08249 18.2724C8.84347 17.6965 8.78093 17.0628 8.90278 16.4515C9.02463 15.8401 9.32539 15.2785 9.76703 14.8378C10.2087 14.397 10.7714 14.0968 11.3839 13.9752C11.9965 13.8536 12.6314 13.916 13.2085 14.1546C13.7855 14.3931 14.2787 14.7971 14.6257 15.3153C14.9727 15.8336 15.1579 16.443 15.1579 17.0663C15.1579 17.9022 14.8252 18.7038 14.233 19.2949C13.6407 19.8859 12.8375 20.218 12 20.218ZM20.8421 13.9146H19.5789C19.4114 13.9146 19.2508 13.8482 19.1324 13.73C19.0139 13.6118 18.9474 13.4515 18.9474 13.2843C18.9474 13.1171 19.0139 12.9568 19.1324 12.8386C19.2508 12.7204 19.4114 12.654 19.5789 12.654H20.8421C21.0096 12.654 21.1703 12.7204 21.2887 12.8386C21.4071 12.9568 21.4737 13.1171 21.4737 13.2843C21.4737 13.4515 21.4071 13.6118 21.2887 13.73C21.1703 13.8482 21.0096 13.9146 20.8421 13.9146ZM13.8947 17.0663C13.8947 17.4403 13.7836 17.8059 13.5754 18.1169C13.3672 18.4279 13.0713 18.6703 12.7251 18.8134C12.3789 18.9565 11.9979 18.994 11.6304 18.921C11.2628 18.848 10.9252 18.6679 10.6602 18.4035C10.3952 18.139 10.2148 17.8021 10.1417 17.4352C10.0686 17.0684 10.1061 16.6882 10.2495 16.3427C10.3929 15.9971 10.6358 15.7018 10.9473 15.494C11.2589 15.2862 11.6253 15.1753 12 15.1753C12.5025 15.1753 12.9844 15.3745 13.3398 15.7292C13.6951 16.0838 13.8947 16.5648 13.8947 17.0663ZM9.03158 3.64019C8.97116 3.5836 8.92301 3.51525 8.89009 3.43936C8.85717 3.36347 8.84019 3.28165 8.84019 3.19896C8.84019 3.11626 8.85717 3.03444 8.89009 2.95855C8.92301 2.88266 8.97116 2.81431 9.03158 2.75772L11.5579 0.236384C11.6039 0.153906 11.6746 0.0878039 11.76 0.0472836C11.9138 -0.0157612 12.0862 -0.0157612 12.24 0.0472836C12.3188 0.0741618 12.3887 0.122131 12.4421 0.185957L14.9684 2.7073C15.0288 2.76389 15.077 2.83224 15.1099 2.90813C15.1428 2.98402 15.1598 3.06583 15.1598 3.14853C15.1598 3.23123 15.1428 3.31304 15.1099 3.38893C15.077 3.46482 15.0288 3.53317 14.9684 3.58976C14.9117 3.65006 14.8432 3.69812 14.7672 3.73098C14.6912 3.76383 14.6092 3.78078 14.5263 3.78078C14.4435 3.78078 14.3615 3.76383 14.2854 3.73098C14.2094 3.69812 14.1409 3.65006 14.0842 3.58976L12.6316 2.20303V8.24163C12.6316 8.40881 12.565 8.56914 12.4466 8.68735C12.3281 8.80556 12.1675 8.87197 12 8.87197C11.8325 8.87197 11.6718 8.80556 11.5534 8.68735C11.435 8.56914 11.3684 8.40881 11.3684 8.24163V2.20303L9.91579 3.64019C9.85909 3.70049 9.7906 3.74855 9.71456 3.7814C9.63852 3.81426 9.55654 3.83121 9.47368 3.83121C9.39083 3.83121 9.30885 3.81426 9.23281 3.7814C9.15677 3.74855 9.08828 3.70049 9.03158 3.64019Z" fill="#727272"/>
</svg>
